<svg width="17" height="17" viewBox="0 0 17 17" fill="none" xmlns="http://www.w3.org/2000/svg">
<path d="M13.9744 4.15147C13.9744 4.81353 13.4377 5.35023 12.7757 5.35023C12.1136 5.35023 11.5769 4.81353 11.5769 4.15147C11.5769 3.48941 12.1136 2.9527 12.7757 2.9527C13.4377 2.9527 13.9744 3.48941 13.9744 4.15147Z" fill="#09C855"/>
<path fill-rule="evenodd" clip-rule="evenodd" d="M8.38018 12.5428C10.587 12.5428 12.3761 10.7538 12.3761 8.54693C12.3761 6.34007 10.587 4.55105 8.38018 4.55105C6.17332 4.55105 4.38431 6.34007 4.38431 8.54693C4.38431 10.7538 6.17332 12.5428 8.38018 12.5428ZM8.38018 10.9445C9.7043 10.9445 10.7777 9.87105 10.7777 8.54693C10.7777 7.22282 9.7043 6.14941 8.38018 6.14941C7.05607 6.14941 5.98266 7.22282 5.98266 8.54693C5.98266 9.87105 7.05607 10.9445 8.38018 10.9445Z" fill="#09C855"/>
<path fill-rule="evenodd" clip-rule="evenodd" d="M0.388428 8.22726C0.388428 5.54178 0.388428 4.19904 0.911057 3.17332C1.37078 2.27107 2.10433 1.53752 3.00657 1.07781C4.03229 0.555176 5.37503 0.555176 8.06051 0.555176H8.69985C11.3853 0.555176 12.7281 0.555176 13.7538 1.07781C14.656 1.53752 15.3896 2.27107 15.8493 3.17332C16.3719 4.19904 16.3719 5.54178 16.3719 8.22726V8.8666C16.3719 11.5521 16.3719 12.8948 15.8493 13.9205C15.3896 14.8228 14.656 15.5563 13.7538 16.0161C12.7281 16.5387 11.3853 16.5387 8.69985 16.5387H8.06051C5.37503 16.5387 4.03229 16.5387 3.00657 16.0161C2.10433 15.5563 1.37078 14.8228 0.911057 13.9205C0.388428 12.8948 0.388428 11.5521 0.388428 8.8666V8.22726ZM8.06051 2.15353H8.69985C10.069 2.15353 10.9997 2.15477 11.7191 2.21355C12.4198 2.2708 12.7782 2.37458 13.0282 2.50195C13.6297 2.80843 14.1187 3.29746 14.4252 3.89896C14.5525 4.14894 14.6563 4.5073 14.7136 5.20804C14.7723 5.92744 14.7736 6.85815 14.7736 8.22726V8.8666C14.7736 10.2357 14.7723 11.1664 14.7136 11.8858C14.6563 12.5866 14.5525 12.9449 14.4252 13.1949C14.1187 13.7964 13.6297 14.2854 13.0282 14.5919C12.7782 14.7193 12.4198 14.8231 11.7191 14.8803C10.9997 14.9391 10.069 14.9403 8.69985 14.9403H8.06051C6.6914 14.9403 5.76069 14.9391 5.04129 14.8803C4.34055 14.8231 3.98219 14.7193 3.73221 14.5919C3.13071 14.2854 2.64168 13.7964 2.3352 13.1949C2.20783 12.9449 2.10405 12.5866 2.0468 11.8858C1.98802 11.1664 1.98678 10.2357 1.98678 8.8666V8.22726C1.98678 6.85815 1.98802 5.92744 2.0468 5.20804C2.10405 4.5073 2.20783 4.14894 2.3352 3.89896C2.64168 3.29746 3.13071 2.80843 3.73221 2.50195C3.98219 2.37458 4.34055 2.2708 5.04129 2.21355C5.76069 2.15477 6.6914 2.15353 8.06051 2.15353Z" fill="#09C855"/>
</svg>
