<svg width="18" height="18" viewBox="0 0 18 18" fill="none" xmlns="http://www.w3.org/2000/svg">
<path fill-rule="evenodd" clip-rule="evenodd" d="M9.18524 0C11.4568 0 13.6148 0.875864 15.2049 2.48632C16.8234 4.09678 17.7036 6.21581 17.7036 8.44785C17.7036 13.138 13.8703 16.924 9.18524 16.924C7.76552 16.924 6.37419 16.5849 5.12483 15.9068L0.610107 17.0935L1.80268 12.7142C1.06442 11.4145 0.666896 9.97355 0.666896 8.4761C0.666896 3.78599 4.50015 0 9.18524 0ZM5.57914 14.5224C6.65813 15.1722 7.90749 15.5113 9.18524 15.5113C13.1037 15.5113 16.2555 12.3469 16.2555 8.4761C16.2555 6.61136 15.5172 4.83138 14.1827 3.50346C12.8481 2.17553 11.0877 1.44094 9.18524 1.44094C5.2952 1.44094 2.11502 4.60535 2.11502 8.4761C2.11502 9.83228 2.48414 11.1037 3.19401 12.2338L3.36437 12.4881L2.65451 15.0875L5.32359 14.3811L5.57914 14.5224ZM11.6273 9.54975C11.826 9.60626 12.8766 10.1148 13.0754 10.2278C13.1513 10.271 13.2189 10.3059 13.2767 10.3358C13.3702 10.384 13.4378 10.4189 13.4729 10.4539C13.5297 10.5669 13.5581 10.9624 13.3593 11.471C13.1606 11.9796 12.3087 12.4316 11.9112 12.4881C11.5421 12.5446 11.0878 12.5729 10.5767 12.4034C10.4902 12.3721 10.3971 12.3408 10.2969 12.3071C10.0354 12.2191 9.72524 12.1147 9.3557 11.9513C7.40783 11.1243 6.0776 9.25731 5.77786 8.83661C5.7499 8.79736 5.7309 8.7707 5.72121 8.75865C5.60763 8.61738 4.84098 7.60025 4.84098 6.58311C4.84098 5.64481 5.30009 5.1393 5.52729 4.88914C5.54638 4.86812 5.56383 4.84891 5.57924 4.83139C5.778 4.63361 6.00516 4.5771 6.14713 4.5771H6.54465C6.55932 4.5771 6.5743 4.5765 6.58955 4.57589C6.72184 4.57055 6.8746 4.5644 7.02736 4.9444C7.19772 5.36821 7.62364 6.41359 7.68043 6.52661C7.73722 6.63962 7.79401 6.75264 7.70882 6.8939C7.69463 6.92216 7.6822 6.95041 7.66978 6.97866C7.63251 7.06343 7.59525 7.14819 7.51006 7.23295C7.4492 7.29351 7.38833 7.37031 7.33183 7.44159C7.28291 7.50331 7.23726 7.56091 7.19772 7.60025C7.11254 7.68501 6.99896 7.79802 7.11254 8.02405C7.25451 8.25008 7.68043 8.92817 8.30511 9.49324C8.93515 10.053 9.51171 10.3111 9.8228 10.4504C9.90426 10.4869 9.96753 10.5152 10.0088 10.5386C10.2075 10.6516 10.3495 10.6234 10.4631 10.4821C10.6051 10.3409 11.0026 9.88879 11.1446 9.66276C11.2865 9.43673 11.4285 9.46499 11.6273 9.54975Z" fill="#09C855"/>
</svg>
