<svg width="59" height="59" viewBox="0 0 59 59" fill="none" xmlns="http://www.w3.org/2000/svg">
<path d="M15.772 14.8879H27.5183" stroke="#09C855" stroke-width="2" stroke-miterlimit="2.6131" stroke-linecap="round" stroke-linejoin="round"/>
<path d="M27.5183 14.8879C28.3703 14.8879 29.0684 15.5889 29.0684 16.4352" stroke="#09C855" stroke-width="2" stroke-miterlimit="2.6131" stroke-linecap="round" stroke-linejoin="round"/>
<path d="M29.0684 16.4352V37.9818" stroke="#09C855" stroke-width="2" stroke-miterlimit="2.6131" stroke-linecap="round" stroke-linejoin="round"/>
<path d="M29.0684 37.9818C29.0684 38.8296 28.3674 39.5289 27.5183 39.5289" stroke="#09C855" stroke-width="2" stroke-miterlimit="2.6131" stroke-linecap="round" stroke-linejoin="round"/>
<path d="M27.5183 39.5289H10.6189" stroke="#09C855" stroke-width="2" stroke-miterlimit="2.6131" stroke-linecap="round" stroke-linejoin="round"/>
<path d="M10.619 39.5289C9.77411 39.5289 9.07178 38.8309 9.07178 37.9818" stroke="#09C855" stroke-width="2" stroke-miterlimit="2.6131" stroke-linecap="round" stroke-linejoin="round"/>
<path d="M9.07178 37.9818V21.0866L15.7721 14.8879" stroke="#09C855" stroke-width="2" stroke-miterlimit="2.6131" stroke-linecap="round" stroke-linejoin="round"/>
<path d="M16.0883 14.8879V20.4656" stroke="#09C855" stroke-width="2" stroke-miterlimit="2.6131" stroke-linecap="round" stroke-linejoin="round"/>
<path d="M16.0883 20.4656C16.0883 20.9201 15.7107 21.2962 15.2577 21.2962" stroke="#09C855" stroke-width="2" stroke-miterlimit="2.6131" stroke-linecap="round" stroke-linejoin="round"/>
<path d="M15.2577 21.2962H9.07178" stroke="#09C855" stroke-width="2" stroke-miterlimit="2.6131" stroke-linecap="round" stroke-linejoin="round"/>
<path fill-rule="evenodd" clip-rule="evenodd" d="M37.6676 33.6508C38.1534 34.0555 38.3971 34.6822 38.3971 35.5228C38.3971 36.3676 38.1463 36.9873 37.652 37.3805C37.1562 37.771 36.3969 37.9704 35.3726 37.9704H34.1346V40.0148H32.9578V33.041H35.3527C36.411 33.0411 37.1818 33.2462 37.6676 33.6508ZM36.8356 36.5315C37.0706 36.2793 37.1874 35.9132 37.1874 35.4302C37.1874 34.9472 37.0393 34.6054 36.74 34.4059C36.4379 34.2064 35.9722 34.1067 35.3297 34.1067H34.1343V36.9019H35.5021C36.1532 36.9019 36.5976 36.7765 36.8356 36.5315Z" fill="#09C855"/>
<path fill-rule="evenodd" clip-rule="evenodd" d="M45.0601 33.9557C45.7326 34.5597 46.0674 35.4089 46.0674 36.4945C46.0674 37.5758 45.7411 38.4349 45.0914 39.0675C44.439 39.7001 43.4417 40.0149 42.0968 40.0149H39.7817V33.0411H42.1766C43.4275 33.0411 44.3892 33.343 45.0601 33.9557ZM44.8808 36.523C44.8808 34.9274 43.9646 34.1267 42.1368 34.1267H40.96V38.9079H42.2663C43.1097 38.9079 43.758 38.707 44.2082 38.3066C44.657 37.902 44.8808 37.3094 44.8808 36.523Z" fill="#09C855"/>
<path fill-rule="evenodd" clip-rule="evenodd" d="M48.7599 34.1381V36.0542H51.8543V37.1412H48.7599V40.0148H47.5831V33.0411H52.2333L52.2232 34.1381H48.7599Z" fill="#09C855"/>
<path d="M33.0131 28.9409H53.7733" stroke="#09C855" stroke-width="2" stroke-miterlimit="2.6131" stroke-linecap="round" stroke-linejoin="round"/>
<path d="M53.7733 28.9409C55.0328 28.9409 56.05 29.961 56.05 31.2175" stroke="#09C855" stroke-width="2" stroke-miterlimit="2.6131" stroke-linecap="round" stroke-linejoin="round"/>
<path d="M56.05 31.2175V41.8384" stroke="#09C855" stroke-width="2" stroke-miterlimit="2.6131" stroke-linecap="round" stroke-linejoin="round"/>
<path d="M56.05 41.8384C56.05 43.0949 55.0328 44.1122 53.7733 44.1122" stroke="#09C855" stroke-width="2" stroke-miterlimit="2.6131" stroke-linecap="round" stroke-linejoin="round"/>
<path d="M53.7733 44.1121H5.22656" stroke="#09C855" stroke-width="2" stroke-miterlimit="2.6131" stroke-linecap="round" stroke-linejoin="round"/>
<path d="M5.22653 44.1121C3.97006 44.1121 2.94995 43.0949 2.94995 41.8383" stroke="#09C855" stroke-width="2" stroke-miterlimit="2.6131" stroke-linecap="round" stroke-linejoin="round"/>
<path d="M2.94995 41.8384V31.2175" stroke="#09C855" stroke-width="2" stroke-miterlimit="2.6131" stroke-linecap="round" stroke-linejoin="round"/>
<path d="M2.94995 31.2175C2.94995 29.961 3.97006 28.9409 5.22653 28.9409" stroke="#09C855" stroke-width="2" stroke-miterlimit="2.6131" stroke-linecap="round" stroke-linejoin="round"/>
<path d="M19.2751 22.0511V35.8334" stroke="#09C855" stroke-width="2" stroke-miterlimit="2.6131" stroke-linecap="round" stroke-linejoin="round"/>
<path d="M19.2751 35.8334L23.6374 31.4695" stroke="#09C855" stroke-width="2" stroke-miterlimit="2.6131" stroke-linecap="round" stroke-linejoin="round"/>
<path d="M19.2752 35.8334L14.5026 31.058" stroke="#09C855" stroke-width="2" stroke-miterlimit="2.6131" stroke-linecap="round" stroke-linejoin="round"/>
</svg>
