<svg width="263" height="74" viewBox="0 0 263 74" fill="none" xmlns="http://www.w3.org/2000/svg">
<path fill-rule="evenodd" clip-rule="evenodd" d="M13.6794 70.2654C20.1662 69.9379 27.193 66.0868 29.5834 61.5488C37.1487 66.7486 47.6228 70.9708 58.585 72.5042C70.1275 74.1182 82.0207 73.5371 91.0253 70.4082C95.6719 68.7942 98.7164 65.8517 97.1967 60.6671C96.7371 59.1035 96.0292 57.6289 95.0814 56.638C88.6584 60.7444 80.5311 63.0604 71.5483 63.7859C57.7915 64.8994 42.9863 62.4759 32.3344 56.1291C34.4844 52.0647 35.5926 43.6173 36.6462 35.5857C37.1133 32.0245 37.5698 28.545 38.1015 25.5655C45.3951 22.7775 56.7146 16.5869 58.689 10.9471C60.244 6.50486 58.2713 3.03165 54.7973 1.27153C50.0065 -1.15703 42.3589 -0.329032 37.1806 5.69534C33.0138 10.5424 30.5832 17.3477 29.2026 22.6902C20.4228 23.6358 11.6715 22.1528 4.88453 15.4852C3.77573 17.1294 1.39374 23.5803 3.8529 25.1675C10.9368 29.7424 19.6847 30.6007 28.171 28.6659C27.694 31.0668 27.3009 34.2151 26.888 37.5217C26.1959 43.0649 25.4482 49.0529 24.1568 52.7096C15.5666 48.489 5.58906 52.1705 1.79801 56.8865C-0.909404 60.2539 -0.501783 64.0681 2.63338 66.7637C5.24351 69.0075 9.55289 70.4754 13.6794 70.2654ZM50.4879 10.8413C48.9664 14.2272 44.543 18.4344 38.4706 20.8142C39.3563 14.9662 42.3992 5.04873 46.9719 3.64131C49.7867 2.77637 52.7826 5.71045 50.4879 10.8413ZM6.4865 60.7561C7.01993 57.1099 16.1688 53.1765 22.5347 57.2829C21.228 60.4773 17.9804 63.6129 15.2344 64.3838C10.7556 65.6418 6.02856 63.8917 6.4865 60.7561ZM163.411 21.0896C165.367 24.5074 172.66 26.5698 177.523 26.6337C183.958 26.7178 191.352 24.3015 198.746 21.8852C200.649 21.2632 202.553 20.6411 204.44 20.0618C214.498 16.9715 224.093 15.0938 230.742 20.8797C238.576 27.6934 237.607 42.8795 231.977 50.8101C226.319 58.781 220.988 56.0266 219.191 49.8108C217.672 44.5539 217.974 37.7805 222.115 34.2452C225.37 31.4673 228.921 31.5042 230.566 36.3294C230.914 37.3422 232.608 36.5142 233.181 33.3483C233.69 30.5503 232.869 28.5315 231.715 27.1157C228.302 22.9186 218.086 25.102 213.778 32.265C211.291 36.3983 210.185 40.7398 209.999 44.7185C209.506 55.2204 215.917 65.9608 227.612 61.1927C235.161 58.1142 239.818 49.3136 240.935 40.6709C242.035 32.1693 240.294 23.142 235.84 17.5308C226.635 5.93348 213.155 9.58767 200.797 12.9376C196.558 14.0868 192.451 15.2001 188.694 15.6497C177.758 16.958 169.758 14.4506 164.355 11.3452C162.571 15.3608 162.195 18.9651 163.411 21.0896ZM82.7246 18.127C80.1279 16.6994 73.4701 18.1874 72.6783 21.6439C71.5762 26.4657 70.1705 34.3812 69.0534 42.0666C68.1056 48.5898 67.3658 54.9467 67.1897 59.1102C66.9901 63.8598 74.8121 61.0634 75.2163 57.5281C76.362 47.488 81.9832 34.6281 85.1905 33.8068C87.5456 33.2039 87.4769 35.6828 86.5358 39.811C85.6516 43.6858 84.9223 48.3035 84.3531 51.9074L84.3531 51.9076L84.353 51.9077L84.3529 51.9083L84.3524 51.9116C84.1077 53.4608 83.8927 54.8225 83.7076 55.857C83.2396 59.703 89.2315 58.388 90.9727 55.5782C92.4334 53.2202 93.0971 51.1594 93.9274 48.5815L93.9274 48.5814L93.9275 48.5813L93.9275 48.5812L93.9275 48.5812C94.617 46.4403 95.4214 43.9428 96.8924 40.6222C98.2109 37.6428 100.804 35.2377 102.173 36.5864C103.222 37.6203 102.645 40.4966 101.882 44.3043C101.151 47.9497 100.249 52.449 100.439 57.0024C100.673 62.6573 102.492 66.112 105.266 67.6236C109.648 70.0068 115.539 67.7646 114.697 63.3543C112.506 63.366 110.656 62.7866 109.343 61.4699C107.883 60.0087 107.066 57.654 106.811 54.547C106.568 51.5741 107.451 47.4044 108.353 43.1415C108.608 41.9376 108.864 40.7262 109.098 39.5322C110.473 32.4783 111.032 26.0307 105.619 25.3203C99.9111 24.569 96.951 31.6597 94.4335 37.6903C94.0247 38.6697 93.6276 39.621 93.2322 40.5063C93.2961 40.2519 93.3681 39.9741 93.4453 39.6765C94.6819 34.9054 97.2364 25.0499 88.901 25.0499C83.3396 25.0499 80.5201 32.2994 78.5532 37.3565L78.5531 37.3569C78.217 38.2211 77.9058 39.0212 77.6101 39.7103C78.0278 38.4475 78.5733 35.9163 79.2642 32.7104L79.2644 32.7095L79.2645 32.7093C80.1605 28.5514 81.3011 23.2589 82.7246 18.127ZM64.7202 25.6394C61.3368 22.2552 55.2325 19.9577 47.1455 25.6999C40.1052 30.6998 36.6547 43.2154 40.0901 51.9874C43.0055 59.4344 50.6883 62.3432 57.3847 61.4481C60.1558 61.0786 62.0094 59.7938 63.0427 58.4149C64.7957 56.0787 64.3696 52.0378 62.0581 50.2105C60.8335 53.3126 57.3427 54.9702 54.7628 54.9971C50.539 55.0425 47.5699 52.3418 46.8704 48.1666C52.4026 48.0373 58.319 45.9782 62.3734 42.7267C67.4829 38.627 68.9541 29.8751 64.7202 25.6394ZM52.817 28.6978C48.3063 31.0609 46.139 37.9838 46.4024 44.7219C52.9159 43.3565 56.1937 40.671 58.4431 37.7839C61.2881 34.1293 59.141 25.3858 52.817 28.6978ZM137.388 40.4979C134.491 39.9101 132.279 36.0086 133.609 32.5337C135.084 28.6826 139.658 27.5775 141.953 31.9778C147.196 42.0296 142.498 58.0218 135.426 65.0807C132.891 67.6101 130.009 68.9554 126.807 68.9218C118.277 68.8294 112.912 60.1598 112.634 50.5279C112.45 44.1659 113.902 37.4479 117.167 32.2633C120.996 26.1852 127.795 22.7422 133.884 23.9363C134.731 27.4633 133.213 31.4823 130.051 33.1131C126.877 34.1292 124.495 37.1439 123.014 40.906C121.627 44.4262 121.028 48.5998 121.3 52.4005C121.704 58.0453 123.561 62.7328 126.919 63.3223C131.296 64.0898 134.095 60.7812 135.731 56.2818C137.598 51.1442 137.947 44.4548 137.388 40.4979ZM152.709 24.4469C150.704 25.2144 148.978 26.7982 148.604 29.7474L144.031 65.7122C143.496 69.9194 150.759 69.5465 151.852 65.5308C152.374 63.6089 152.78 61.8619 153.174 60.1658C153.979 56.7069 154.734 53.4596 156.322 49.3724C157.399 46.6029 158.63 43.9576 159.97 42.0531C163.307 37.3051 167.261 37.9803 164.874 47.4544C163.205 54.0733 161.245 63.2937 168.099 67.7411C169.809 68.8495 171.632 69.1418 173.187 68.7857C175.732 68.2046 177.56 65.8852 177.008 62.5665C172.686 63.3962 169.037 61.668 169.622 53.8449C169.892 50.2466 170.936 46.4001 171.878 42.9265C172.606 40.2455 173.273 37.7867 173.477 35.8356C173.992 30.9214 172.427 28.4088 170.062 27.8193C167.076 27.0736 162.817 29.3863 159.861 33.7866C158.221 36.2289 157.013 39.1741 156.132 41.3221C155.935 41.8018 155.754 42.2418 155.589 42.6275C156.003 41.3022 156.66 38.1041 157.348 34.7502L157.348 34.7498L157.349 34.748L157.349 34.7467C158.297 30.1278 159.306 25.2143 159.826 24.4905C158.838 23.8859 155.502 23.377 152.709 24.4469ZM197.611 62.3264C195.008 67.2524 191.524 69.723 187.268 69.4223C180.786 68.9622 177.277 63.3778 175.984 56.8076C174.288 48.1783 176.927 37.5185 182.831 31.5613C185.529 28.8405 189.622 26.8201 193.507 27.2484C195.998 27.5221 198.797 28.8036 199.789 31.5496L200.544 26.5027C204.318 24.2639 209.449 26.9276 208.919 31.0037C208.38 35.1618 207.674 38.9507 206.958 42.7943L206.958 42.7952L206.957 42.7958L206.957 42.7961C206.548 44.9926 206.135 47.2071 205.749 49.5186C205.731 49.6255 205.713 49.7333 205.694 49.8421L205.656 50.0713L205.653 50.0852C204.945 54.2755 204.029 59.696 206.51 62.481C207.587 63.6919 209.209 64.7953 211.962 64.3049C212.014 68.0653 209.58 69.8321 206.262 69.8657C202.887 69.901 199.099 67.6387 197.611 62.3264ZM198.794 42.1422C199.022 38.0845 195.946 35.9516 192.993 35.9969C189.125 36.0574 185.005 39.3055 183.093 46.6617C181.213 53.892 182.714 61.8797 187.404 63.5743C191.547 65.0724 196.558 59.9567 197.333 53.6888L198.794 42.1422ZM249.05 33.0309C249.378 28.0209 254.282 28.5718 254.901 32.1558C255.095 33.2761 254.781 34.5558 253.777 35.624C255.09 36.9542 256.456 37.5336 257.699 37.5336C260.383 37.5353 262.489 34.8414 262.226 31.1733C261.949 27.3323 259.138 23.1957 253.126 23.2948C248.365 23.3737 244.765 26.0643 243.516 29.8297C241.581 35.6575 243.432 39.5236 245.2 43.2163C246.679 46.3068 248.101 49.2758 247.196 53.1714C246.446 56.3978 244.2 59.0329 241.139 60.9962C234.501 65.2521 224.027 66.3555 216.636 63.5037C214.437 68.6363 221.174 70.435 227.997 70.6802C235.232 70.9389 243.605 70.0975 249.736 65.5863C252.126 63.8279 254.017 61.5555 255.221 59.0144C258.783 51.497 255.577 46.6017 252.609 42.0699C250.671 39.1114 248.835 36.3079 249.05 33.0309Z" fill="#09C855"/>
</svg>
