<svg width="17" height="18" viewBox="0 0 17 18" fill="none" xmlns="http://www.w3.org/2000/svg">
<path fill-rule="evenodd" clip-rule="evenodd" d="M8.87415 0.401267C12.7197 0.416878 14.4473 1.67097 14.874 2.06645C16.2894 3.29452 17.0752 6.02126 16.5288 10.3351C16.0602 14.1452 13.4091 14.8213 12.5143 15.0495C12.4254 15.0722 12.3537 15.0904 12.3034 15.1069C10.6292 15.5152 8.89872 15.6419 7.18295 15.4816C6.88114 15.8354 6.47525 16.2985 6.18384 16.616C6.09274 16.7133 6.00766 16.8095 5.92644 16.9013C5.52981 17.35 5.22539 17.6943 4.76323 17.5474C4.32612 17.4069 4.32612 16.7044 4.32612 16.7044V14.9716C0.293264 13.8372 0.350505 9.65343 0.397338 7.42105C0.444171 5.18866 0.876078 3.38819 2.10935 2.15492C4.33653 0.125477 8.87415 0.401267 8.87415 0.401267ZM12.0807 13.8387C12.8399 13.6619 14.9489 13.1707 15.3423 10.0281C15.7846 6.42193 15.1758 3.9658 13.9634 2.93547C13.6043 2.60764 12.0432 1.61373 8.79089 1.61373C8.79089 1.61373 4.93496 1.36395 3.06683 3.05515C2.02609 4.08548 1.67745 5.61537 1.63582 7.47829C1.63451 7.53673 1.63305 7.59685 1.63155 7.6585C1.58533 9.56198 1.50354 12.9304 4.81007 13.8528V16.7304C4.81007 16.8918 4.83609 17.001 4.92975 17.0271C4.97666 17.0308 5.02377 17.0233 5.0672 17.0052C5.11063 16.9871 5.14913 16.9589 5.17953 16.923C5.72591 16.3506 7.47436 14.2691 7.47436 14.2691C8.95435 14.3725 10.4414 14.2443 11.8819 13.8892C11.9287 13.8741 11.9964 13.8584 12.0807 13.8387ZM9.45538 10.1996C9.37448 10.2301 9.28788 10.2426 9.20164 10.2362C8.53069 10.0355 7.92043 9.6705 7.42613 9.17439C6.93183 8.67827 6.56911 8.06667 6.37083 7.395C6.36433 7.30797 6.37679 7.22056 6.40733 7.13881C6.43788 7.05706 6.48579 6.98291 6.54776 6.92146L6.95364 6.60403C7.07467 6.49225 7.15325 6.34201 7.17602 6.17884C7.19879 6.01566 7.16434 5.84965 7.07853 5.70901C7.05481 5.67046 7.02771 5.62554 6.99816 5.57655C6.87213 5.36759 6.70148 5.08468 6.55816 4.90763C6.38124 4.68908 5.96494 4.16871 5.96494 4.16871C5.86986 4.05186 5.73515 3.97404 5.58643 3.95005C5.43771 3.92607 5.28536 3.95759 5.15837 4.03862C4.87257 4.26282 4.62481 4.53166 4.42465 4.83478C4.25092 5.02293 4.13685 5.25833 4.09682 5.51126C4.09368 5.54415 4.09368 5.57725 4.09682 5.61014C4.09711 5.70912 4.11291 5.80745 4.14365 5.90154C4.36421 6.55072 4.65197 7.17508 5.00226 7.76446C5.30549 8.31266 5.65359 8.83482 6.043 9.32557C6.23895 9.57196 6.44737 9.80817 6.66744 10.0333H6.69346C6.9155 10.2547 7.15005 10.4632 7.39595 10.6577C7.88543 11.0489 8.40774 11.3971 8.95706 11.6984C9.54724 12.0486 10.1714 12.338 10.82 12.5623C10.9126 12.5913 11.0092 12.6054 11.1062 12.6039C11.1389 12.6095 11.1723 12.6095 11.2051 12.6039C11.4593 12.5631 11.6961 12.4492 11.8867 12.2761C12.1509 12.039 12.3757 11.7615 12.5528 11.4539C12.6335 11.3277 12.6648 11.1762 12.6408 11.0283C12.6168 10.8805 12.5392 10.7467 12.4227 10.6525C12.4227 10.6473 11.9284 10.2362 11.6838 10.0541C11.426 9.86667 11.1585 9.69297 10.8824 9.53371C10.7438 9.44566 10.5785 9.40939 10.4157 9.43128C10.2529 9.45318 10.1031 9.53184 9.99259 9.6534L9.66997 10.0593C9.60952 10.1211 9.53628 10.169 9.45538 10.1996Z" fill="#09C855"/>
</svg>
